<svg width="48" height="48" viewBox="0 0 48 48" fill="none" xmlns="http://www.w3.org/2000/svg">
<path d="M7.67637 7.67616C8.5779 6.77461 10.0396 6.77462 10.9411 7.67616L40.3238 37.059C41.2254 37.9606 41.2254 39.4223 40.3238 40.3238C39.4223 41.2254 37.9606 41.2254 37.0591 40.3238L7.67637 10.9409C6.77483 10.0394 6.77483 8.5777 7.67637 7.67616Z" fill="#696969"/>
<path d="M7.67615 40.3238C6.77462 39.4223 6.77462 37.9606 7.67615 37.0591L37.0589 7.67619C37.9604 6.77465 39.4221 6.77465 40.3236 7.67619C41.2252 8.57773 41.2252 10.0394 40.3236 10.941L10.9409 40.3238C10.0394 41.2254 8.57769 41.2254 7.67615 40.3238Z" fill="#696969"/>
</svg>
