<svg width="24" height="24" viewBox="0 0 24 24" fill="none" xmlns="http://www.w3.org/2000/svg">
<rect width="24" height="24" fill="white"/>
<path fill-rule="evenodd" clip-rule="evenodd" d="M3.5 12C3.5 16.6944 7.30558 20.5 12 20.5C16.6944 20.5 20.5 16.6944 20.5 12C20.5 7.30558 16.6944 3.5 12 3.5C7.30558 3.5 3.5 7.30558 3.5 12ZM12 2C6.47715 2 2 6.47715 2 12C2 17.5228 6.47715 22 12 22C17.5228 22 22 17.5228 22 12C22 6.47715 17.5228 2 12 2Z" fill="#797979"/>
<path d="M11 6.4C11 6.17909 11.1791 6 11.4 6H12.6C12.8209 6 13 6.17909 13 6.4V7.6C13 7.82091 12.8209 8 12.6 8H11.4C11.1791 8 11 7.82091 11 7.6V6.4Z" fill="#797979"/>
<path d="M11 10.4C11 10.1791 11.1791 10 11.4 10H12.6C12.8209 10 13 10.1791 13 10.4V17.6C13 17.8209 12.8209 18 12.6 18H11.4C11.1791 18 11 17.8209 11 17.6V10.4Z" fill="#797979"/>
</svg>
