<svg width="48" height="48" viewBox="0 0 48 48" fill="none" xmlns="http://www.w3.org/2000/svg">
<path fill-rule="evenodd" clip-rule="evenodd" d="M24.5588 0.876035C24.3234 -0.162557 22.8437 -0.162556 22.6083 0.876036L21.6686 5.02185C22.2995 4.95625 22.9397 4.92261 23.5875 4.92261C24.2326 4.92261 24.87 4.95596 25.4983 5.02099L24.5588 0.876035ZM29.4386 5.87394C30.6655 6.28503 31.8363 6.82148 32.9364 7.46777L33.7563 3.2536C33.9595 2.20899 32.6071 1.61196 31.9722 2.466L29.4386 5.87394ZM36.1604 9.85798C37.1115 10.7336 37.9733 11.7061 38.7302 12.7591L41.2093 9.19975C41.8166 8.3279 40.8249 7.23586 39.8987 7.7565L36.1604 9.85798ZM40.7132 16.2384C41.2298 17.4193 41.6297 18.6619 41.8981 19.9504L45.6215 17.7019C46.5296 17.1535 46.0712 15.7545 45.0146 15.8499L40.7132 16.2384ZM42.2941 23.9252C42.2859 25.2576 42.1384 26.5599 41.8654 27.8176L46.2127 27.2874C47.2654 27.159 47.4205 25.6958 46.4181 25.3496L42.2941 23.9252ZM40.628 31.5677C40.085 32.7722 39.4201 33.911 38.649 34.9673L42.8779 36.2816C43.8917 36.5967 44.6331 35.3233 43.8587 34.5972L40.628 31.5677ZM36.0484 37.8586C35.0762 38.7394 34.0127 39.5199 32.874 40.1829L36.2093 43.1213C37.0072 43.8243 38.2055 42.9611 37.7914 41.9816L36.0484 37.8586ZM29.3492 41.77C28.1212 42.1744 26.8377 42.4535 25.5133 42.5917L27.3721 46.6362C27.8167 47.6037 29.2642 47.2986 29.2806 46.234L29.3492 41.77ZM21.6541 42.5909C20.3295 42.4521 19.0459 42.1724 17.8178 41.7673L17.8864 46.234C17.9028 47.2986 19.3503 47.6037 19.795 46.6362L21.6541 42.5909ZM14.2962 40.1801C13.1571 39.5163 12.0933 38.735 11.1209 37.8533L9.3756 41.9816C8.96152 42.9611 10.1598 43.8243 10.9577 43.1213L14.2962 40.1801ZM8.5246 34.9653C7.75303 33.908 7.08776 32.7681 6.54473 31.5624L3.30829 34.5972C2.53389 35.3233 3.27533 36.5967 4.28909 36.2816L8.5246 34.9653ZM5.30988 27.8186C5.03662 26.5597 4.88903 25.2561 4.88098 23.9224L0.748937 25.3496C-0.253462 25.6958 -0.0983529 27.159 0.954356 27.2874L5.30988 27.8186ZM5.27607 19.9547C5.54441 18.6649 5.94452 17.4211 6.46161 16.2391L2.15246 15.8499C1.09587 15.7545 0.637431 17.1535 1.54558 17.7019L5.27607 19.9547ZM8.44077 12.7647C9.19789 11.7108 10.06 10.7373 11.0116 9.86079L7.26833 7.75651C6.34216 7.23586 5.35048 8.3279 5.95773 9.19975L8.44077 12.7647ZM14.2315 7.47201C15.3317 6.82496 16.5028 6.28781 17.7301 5.8761L15.1949 2.466C14.5599 1.61195 13.2075 2.20899 13.4107 3.25361L14.2315 7.47201Z" fill="white"/>
<rect x="5.91809" y="5.96981" width="35.4447" height="35.7812" rx="17.7223" stroke="white" stroke-width="3"/>
<path fill-rule="evenodd" clip-rule="evenodd" d="M18.9863 19.3534C19.3499 19.0165 19.7553 18.7143 20.2003 18.4549C20.6454 18.1955 21.1074 17.9922 21.5782 17.8428L15.5889 7.37048L12.997 8.88113L18.9863 19.3534ZM30.375 22.975C30.5937 23.9771 30.5859 25.0053 30.3703 25.9856L41.3626 25.9856L41.3748 22.975L30.375 22.975ZM21.3794 31.0456C20.4408 30.7159 19.5698 30.1826 18.8392 29.466L13.1399 39.4312L15.7287 40.9258L21.3794 31.0456Z" fill="white"/>
<rect x="2.04064" y="0.546768" width="10.8169" height="10.8823" rx="5.40843" transform="matrix(0.863968 -0.503547 0.496461 0.868059 14.2378 23.0334)" stroke="white" stroke-width="3"/>
</svg>
