<svg width="103" height="31" viewBox="0 0 103 31" fill="none" xmlns="http://www.w3.org/2000/svg">
<g clip-path="url(#clip0_4_2)">
<path d="M63.885 24.2182C57.9067 28.6122 49.2414 30.9566 41.7808 30.9566C31.3198 30.9566 21.9022 27.0984 14.7774 20.6815C14.2177 20.1769 14.7192 19.4892 15.3909 19.8821C23.08 24.3432 32.5871 27.027 42.4077 27.027C49.0309 27.027 56.3169 25.6605 63.0163 22.8249C64.0283 22.3962 64.8747 23.4858 63.885 24.2182Z" fill="white"/>
<path d="M66.3704 21.3826C65.6091 20.4091 61.319 20.9226 59.3934 21.1504C58.8068 21.2218 58.7172 20.7127 59.2456 20.3466C62.6625 17.9486 68.2692 18.6407 68.923 19.4445C69.5768 20.2528 68.7528 25.857 65.5419 28.5318C65.0494 28.9427 64.5791 28.7239 64.7986 28.1791C65.5196 26.3839 67.1362 22.3605 66.3704 21.3826Z" fill="white"/>
<path d="M59.5278 3.41783V1.08684C59.5278 0.734062 59.7964 0.497391 60.1189 0.497391H70.5843C70.9202 0.497391 71.1889 0.738528 71.1889 1.08684V3.08292C71.1844 3.41783 70.9023 3.85545 70.4007 4.5476L64.9777 12.2685C66.9929 12.2193 69.12 12.5185 70.9471 13.5456C71.3591 13.7778 71.471 14.1172 71.5024 14.4521V16.9394C71.5024 17.2788 71.1262 17.6762 70.7321 17.4708C67.5123 15.7873 63.2357 15.6042 59.6755 17.4886C59.3128 17.6851 58.9322 17.2922 58.9322 16.9528V14.5905C58.9322 14.211 58.9366 13.5635 59.3173 12.9874L65.6001 4.00281H60.1323C59.7964 4.00281 59.5278 3.76614 59.5278 3.41783Z" fill="white"/>
<path d="M21.3514 17.962H18.1674C17.8629 17.9397 17.6211 17.7119 17.5987 17.4217V1.12702C17.5987 0.801042 17.8718 0.542041 18.2122 0.542041H21.1812C21.4902 0.555429 21.7365 0.792109 21.7589 1.08683V3.21688H21.8171C22.5918 1.15828 24.0472 0.198196 26.0087 0.198196C28.0014 0.198196 29.2464 1.15828 30.142 3.21688C30.9123 1.15828 32.6632 0.198196 34.5396 0.198196C35.8741 0.198196 37.3339 0.747453 38.2251 1.97993C39.2327 3.35084 39.0267 5.34246 39.0267 7.08847L39.0222 17.3725C39.0222 17.6985 38.7491 17.962 38.4087 17.962H35.2292C34.9113 17.9397 34.656 17.6851 34.656 17.3725V8.73624C34.656 8.04856 34.7187 6.3338 34.5664 5.68184C34.3291 4.58779 33.6171 4.27967 32.6946 4.27967C31.9243 4.27967 31.1183 4.7932 30.7913 5.61486C30.4644 6.43651 30.4958 7.81188 30.4958 8.73624V17.3725C30.4958 17.6985 30.2226 17.962 29.8823 17.962H26.7028C26.3804 17.9397 26.1296 17.6851 26.1296 17.3725L26.1251 8.73624C26.1251 6.91878 26.4251 4.24394 24.1637 4.24394C21.8753 4.24394 21.9649 6.8518 21.9649 8.73624V17.3725C21.9649 17.6985 21.6917 17.962 21.3514 17.962Z" fill="white"/>
<path d="M80.199 0.198196C84.9234 0.198196 87.4805 4.24394 87.4805 9.38821C87.4805 14.3583 84.6548 18.3014 80.199 18.3014C75.5596 18.3014 73.0339 14.2556 73.0339 9.21405C73.0339 4.14124 75.5909 0.198196 80.199 0.198196ZM80.2258 3.525C77.8793 3.525 77.7315 6.71337 77.7315 8.70052C77.7315 10.6921 77.7002 14.9433 80.199 14.9433C82.6665 14.9433 82.7829 11.5138 82.7829 9.42393C82.7829 8.04856 82.7247 6.40525 82.3082 5.10132C81.9499 3.96709 81.2379 3.525 80.2258 3.525Z" fill="white"/>
<path d="M93.6066 17.962H90.4361C90.1181 17.9397 89.8629 17.6851 89.8629 17.3725L89.8584 1.07344C89.8853 0.774246 90.1495 0.542041 90.4719 0.542041H93.423C93.7007 0.555429 93.929 0.742989 93.9917 0.997523V3.48927H94.05C94.9411 1.26099 96.1905 0.198196 98.3893 0.198196C99.8178 0.198196 101.211 0.71173 102.106 2.11836C102.939 3.42229 102.939 5.61486 102.939 7.19118V17.4484C102.903 17.7342 102.639 17.962 102.326 17.962H99.1327C98.8416 17.9397 98.5998 17.7253 98.5684 17.4484V8.59781C98.5684 6.81608 98.7744 4.20822 96.5756 4.20822C95.8009 4.20822 95.0889 4.72622 94.7351 5.51215C94.2873 6.50796 94.2291 7.4993 94.2291 8.59781V17.3725C94.2246 17.6985 93.947 17.962 93.6066 17.962Z" fill="white"/>
<path d="M51.1849 10.1786V9.49093C48.8831 9.49093 46.4515 9.98213 46.4515 12.6882C46.4515 14.0591 47.1635 14.988 48.3861 14.988C49.2817 14.988 50.0833 14.4387 50.5893 13.5456C51.2163 12.4471 51.1849 11.4156 51.1849 10.1786ZM54.3958 17.9173C54.1853 18.1049 53.8808 18.1183 53.6434 17.9933C52.5866 17.118 52.3985 16.7117 51.8163 15.8766C50.0699 17.6539 48.8339 18.1853 46.5679 18.1853C43.89 18.1853 41.8032 16.5375 41.8032 13.2375C41.8032 10.6609 43.2048 8.90595 45.1976 8.04857C46.9262 7.28943 49.3399 7.15547 51.1849 6.94559V6.53476C51.1849 5.78009 51.2431 4.88699 50.7998 4.23503C50.4102 3.65005 49.6668 3.40891 49.013 3.40891C47.7994 3.40891 46.7157 4.02961 46.4515 5.31568C46.3978 5.60147 46.1873 5.8828 45.9007 5.8962L42.8107 5.56575C42.551 5.5077 42.2644 5.29782 42.3361 4.90039C43.0481 1.16723 46.4291 0.0419159 49.4564 0.0419159C51.0058 0.0419159 53.0299 0.452742 54.2525 1.6227C55.8019 3.06506 55.6541 4.9897 55.6541 7.08402V12.0318C55.6541 13.5188 56.2721 14.1708 56.8543 14.9746C57.0603 15.2604 57.1051 15.6042 56.8453 15.8186C56.196 16.3589 55.0406 17.3636 54.4047 17.9263L54.3958 17.9173Z" fill="white"/>
<path d="M9.44396 10.1786V9.49093C7.14218 9.49093 4.71053 9.98213 4.71053 12.6882C4.71053 14.0591 5.42256 14.988 6.6451 14.988C7.54073 14.988 8.34232 14.4387 8.84836 13.5456C9.4753 12.4471 9.44396 11.4156 9.44396 10.1786ZM12.6548 17.9173C12.4443 18.1049 12.1398 18.1183 11.9025 17.9933C10.8456 17.118 10.6575 16.7117 10.0754 15.8766C8.32889 17.6539 7.09292 18.1853 4.82696 18.1853C2.14902 18.1853 0.0621948 16.5375 0.0621948 13.2375C0.0621948 10.6609 1.46386 8.90595 3.45664 8.04857C5.18522 7.28943 7.59895 7.15547 9.44396 6.94559V6.53476C9.44396 5.78009 9.50217 4.88699 9.05883 4.23503C8.66923 3.65005 7.92586 3.40891 7.27204 3.40891C6.05846 3.40891 4.97474 4.02961 4.71053 5.31568C4.65679 5.60147 4.44632 5.8828 4.15972 5.8962L1.06978 5.56575C0.810048 5.5077 0.523445 5.29782 0.595096 4.90039C1.30712 1.16723 4.68814 0.0419159 7.71538 0.0419159C9.26483 0.0419159 11.289 0.452742 12.5115 1.6227C14.0609 3.06506 13.9132 4.9897 13.9132 7.08402V12.0318C13.9132 13.5188 14.5312 14.1708 15.1133 14.9746C15.3193 15.2604 15.3641 15.6042 15.1044 15.8186C14.455 16.3589 13.2997 17.3636 12.6638 17.9263L12.6548 17.9173Z" fill="white"/>
</g>
<defs>
<clipPath id="clip0_4_2">
<rect width="103" height="31" fill="white"/>
</clipPath>
</defs>
</svg>
