<svg width="624" height="230" viewBox="0 0 624 230" fill="none" xmlns="http://www.w3.org/2000/svg">
<g clip-path="url(#clip0_964_320)">
<path d="M395.642 164.938C360.643 190.735 309.913 204.499 266.236 204.499C204.994 204.499 149.86 181.848 108.149 144.174C104.871 141.212 107.808 137.174 111.74 139.481C156.755 165.672 212.413 181.428 269.906 181.428C308.681 181.428 351.336 173.406 390.556 156.758C396.481 154.242 401.436 160.638 395.642 164.938Z" fill="white"/>
<path d="M410.193 148.29C405.736 142.575 380.62 145.59 369.347 146.927C365.913 147.346 365.388 144.358 368.482 142.208C388.485 128.13 421.309 132.193 425.136 136.912C428.964 141.657 424.14 174.56 405.343 190.263C402.459 192.675 399.706 191.391 400.991 188.192C405.212 177.653 414.676 154.032 410.193 148.29Z" fill="white"/>
<path d="M370.133 42.8199V29.1347C370.133 27.0636 371.706 25.6741 373.594 25.6741H434.863C436.829 25.6741 438.402 27.0898 438.402 29.1347V40.8537C438.376 42.8199 436.724 45.3892 433.788 49.4528L402.039 94.7817C413.837 94.4933 426.29 96.2499 436.986 102.28C439.398 103.643 440.054 105.635 440.237 107.602V122.205C440.237 124.197 438.035 126.53 435.728 125.324C416.878 115.441 391.841 114.366 370.999 125.429C368.875 126.583 366.647 124.276 366.647 122.283V108.414C366.647 106.186 366.673 102.385 368.901 99.0026L405.683 46.2543H373.673C371.706 46.2543 370.133 44.8649 370.133 42.8199Z" fill="white"/>
<path d="M146.635 128.208H127.995C126.212 128.077 124.796 126.74 124.665 125.036V29.3707C124.665 27.4569 126.264 25.9363 128.257 25.9363H145.639C147.448 26.0149 148.89 27.4044 149.021 29.1347V41.6402H149.361C153.897 29.5542 162.417 23.9176 173.9 23.9176C185.567 23.9176 192.855 29.5542 198.099 41.6402C202.608 29.5542 212.859 23.9176 223.843 23.9176C231.656 23.9176 240.203 27.1423 245.42 34.3781C251.319 42.4267 250.113 54.1194 250.113 64.3702L250.087 124.748C250.087 126.661 248.487 128.208 246.495 128.208H227.881C226.019 128.077 224.525 126.583 224.525 124.748V74.0442C224.525 70.0068 224.892 59.9395 224.001 56.1119C222.611 49.6888 218.443 47.8798 213.042 47.8798C208.533 47.8798 203.814 50.8947 201.9 55.7186C199.986 60.5425 200.17 68.6173 200.17 74.0442V124.748C200.17 126.661 198.57 128.208 196.578 128.208H177.964C176.076 128.077 174.608 126.583 174.608 124.748L174.582 74.0442C174.582 63.374 176.339 47.67 163.099 47.67C149.702 47.67 150.227 62.9807 150.227 74.0442V124.748C150.227 126.661 148.627 128.208 146.635 128.208Z" fill="white"/>
<path d="M491.15 23.9176C518.809 23.9176 533.779 47.67 533.779 77.8719C533.779 107.051 517.236 130.201 491.15 130.201C463.99 130.201 449.203 106.448 449.203 76.8494C449.203 47.0671 464.173 23.9176 491.15 23.9176ZM491.308 43.4491C477.57 43.4491 476.705 62.168 476.705 73.8345C476.705 85.5272 476.521 110.486 491.15 110.486C505.596 110.486 506.278 90.3511 506.278 78.0816C506.278 70.0068 505.937 60.359 503.499 52.7037C501.401 46.0446 497.233 43.4491 491.308 43.4491Z" fill="white"/>
<path d="M569.644 128.208H551.082C549.221 128.077 547.726 126.583 547.726 124.748L547.7 29.0561C547.857 27.2996 549.404 25.9363 551.292 25.9363H568.569C570.194 26.0149 571.531 27.1161 571.898 28.6104V43.2394H572.239C577.456 30.1572 584.771 23.9176 597.643 23.9176C606.006 23.9176 614.16 26.9325 619.403 35.1908C624.28 42.8462 624.28 55.7186 624.28 64.9732V125.193C624.07 126.871 622.523 128.208 620.688 128.208H601.995C600.291 128.077 598.875 126.819 598.692 125.193V73.2315C598.692 62.771 599.898 47.4603 587.025 47.4603C582.49 47.4603 578.321 50.5015 576.25 55.1156C573.629 60.962 573.288 66.7821 573.288 73.2315V124.748C573.262 126.661 571.636 128.208 569.644 128.208Z" fill="white"/>
<path d="M321.291 82.5122V78.4748C307.816 78.4748 293.58 81.3587 293.58 97.2461C293.58 105.295 297.749 110.748 304.906 110.748C310.149 110.748 314.842 107.523 317.805 102.28C321.475 95.8304 321.291 89.7743 321.291 82.5122ZM340.089 127.946C338.857 129.047 337.074 129.126 335.685 128.392C329.497 123.253 328.396 120.867 324.988 115.965C314.763 126.399 307.528 129.519 294.262 129.519C278.584 129.519 266.367 119.845 266.367 100.471C266.367 85.3437 274.573 75.0404 286.24 70.0068C296.359 65.5499 310.49 64.7634 321.291 63.5312V61.1193C321.291 56.6886 321.632 51.4453 319.037 47.6176C316.756 44.1832 312.404 42.7675 308.576 42.7675C301.472 42.7675 295.127 46.4116 293.58 53.9621C293.266 55.64 292.033 57.2916 290.356 57.3703L272.266 55.4302C270.745 55.0894 269.068 53.8572 269.487 51.5239C273.655 29.6067 293.449 23 311.172 23C320.243 23 332.093 25.4119 339.25 32.2808C348.321 40.7488 347.456 52.0483 347.456 64.344V93.3922C347.456 102.122 351.074 105.95 354.482 110.669C355.688 112.347 355.95 114.366 354.43 115.624C350.628 118.796 343.864 124.695 340.141 127.998L340.089 127.946Z" fill="white"/>
<path d="M76.9243 82.5122V78.4748C63.4488 78.4748 49.2131 81.3587 49.2131 97.2461C49.2131 105.295 53.3815 110.748 60.5387 110.748C65.7821 110.748 70.4749 107.523 73.4374 102.28C77.1078 95.8304 76.9243 89.7743 76.9243 82.5122ZM95.7218 127.946C94.4896 129.047 92.7068 129.126 91.3173 128.392C85.1302 123.253 84.029 120.867 80.6208 115.965C70.3963 126.399 63.1605 129.519 49.8947 129.519C34.217 129.519 22 119.845 22 100.471C22 85.3437 30.2059 75.0404 41.8724 70.0068C51.9921 65.5499 66.1229 64.7634 76.9243 63.5312V61.1193C76.9243 56.6886 77.2651 51.4453 74.6696 47.6176C72.3888 44.1832 68.0368 42.7675 64.2091 42.7675C57.1044 42.7675 50.7599 46.4116 49.2131 53.9621C48.8985 55.64 47.6663 57.2916 45.9884 57.3703L27.8988 55.4302C26.3782 55.0894 24.7003 53.8572 25.1198 51.5239C29.2883 29.6067 49.082 23 66.8046 23C75.8756 23 87.7256 25.4119 94.8828 32.2808C103.954 40.7488 103.089 52.0483 103.089 64.344V93.3922C103.089 102.122 106.707 105.95 110.115 110.669C111.321 112.347 111.583 114.366 110.062 115.624C106.261 118.796 99.497 124.695 95.7742 127.998L95.7218 127.946Z" fill="white"/>
</g>
<defs>
<clipPath id="clip0_964_320">
<rect width="624" height="230" fill="white"/>
</clipPath>
</defs>
</svg>
