<svg width="96" height="145" viewBox="0 0 96 145" fill="none" xmlns="http://www.w3.org/2000/svg">
<path fill-rule="evenodd" clip-rule="evenodd" d="M48.8889 46.0644C46.2339 46.3717 44.2091 48.5199 44.0209 51.2289C43.9397 52.3962 43.9652 52.4754 46.6209 59.2839C52.6629 74.7744 54.1267 78.5026 54.3729 79.0273C54.9693 80.2981 55.808 81.4935 56.8559 82.5665C57.6599 83.3899 58.1902 83.8326 59.0872 84.4295C60.6635 85.4783 61.4458 85.7683 67.5796 87.5777C73.5547 89.3404 76.8191 90.5119 79.6321 91.9028C83.2762 93.7049 85.8188 95.7547 87.4271 98.1868C88.581 99.9319 89.603 103.061 90.0476 106.211C90.2215 107.443 90.2226 110.165 90.0498 111.278C89.6746 113.694 88.9252 115.718 87.7789 117.413C87.1693 118.314 87.3814 118.163 88.2678 117.065C90.7762 113.958 93.3314 108.647 94.6353 103.831C96.2132 98.0029 96.4278 91.7443 95.253 85.8207C92.965 74.2853 85.6557 64.3302 75.3612 58.7288C74.7144 58.3767 72.2507 57.0902 68.9107 55.3601C68.4038 55.0974 67.7127 54.7379 67.3748 54.5612C67.0369 54.3844 66.3458 54.0249 65.839 53.7624C65.3322 53.4999 63.8731 52.7425 62.5967 52.0795C61.3203 51.4163 59.8921 50.6744 59.4228 50.4307C57.9923 49.6876 57.0325 49.1884 56.317 48.8152C53.0073 47.089 51.6064 46.3912 51.207 46.2701C50.7881 46.1431 49.7239 45.9801 49.4569 46.002C49.4007 46.0066 49.1451 46.0346 48.8889 46.0644Z" fill="url(#paint0_radial_965_343)"/>
<path d="M55.6912 104.147C55.5065 104.257 55.2473 104.415 55.115 104.499C54.9825 104.583 54.6888 104.766 54.462 104.905C53.6296 105.416 51.4158 106.78 49.5135 107.954C48.2633 108.726 48.0777 108.841 46.4896 109.826C45.9224 110.178 45.3194 110.549 45.1493 110.65C44.9791 110.752 44.2524 111.199 43.5342 111.645C42.8159 112.09 41.5634 112.863 40.7507 113.363C39.938 113.862 38.4844 114.759 37.5205 115.355C36.5566 115.951 35.2885 116.733 34.7027 117.093C34.1167 117.452 33.5755 117.799 33.4999 117.864C33.3876 117.96 28.1765 121.188 25.5617 122.781C23.5758 123.99 21.2785 124.799 18.9267 125.117C17.8319 125.265 15.76 125.266 14.6683 125.118C11.7079 124.718 8.98078 123.614 6.64519 121.871C5.72904 121.187 4.00424 119.463 3.34487 118.573C1.791 116.475 0.785768 114.225 0.265152 111.68C0.14536 111.094 0.0320284 110.599 0.0134032 110.58C-0.0352565 110.531 0.0526421 111.416 0.211198 112.573C0.376078 113.776 0.727422 115.517 1.10584 117.006C4.03421 128.526 12.367 137.896 23.6476 142.354C26.8959 143.638 30.1738 144.446 33.7404 144.843C35.0806 144.993 38.874 145.052 40.2727 144.946C46.687 144.46 52.272 142.573 58.0015 138.952C58.5119 138.629 59.4706 138.025 60.132 137.608C60.7936 137.192 61.6286 136.663 61.9878 136.432C62.3468 136.202 62.7798 135.929 62.9499 135.827C63.12 135.725 63.4602 135.511 63.706 135.352C63.9517 135.193 65.0032 134.528 66.0427 133.874L70.1995 131.249L71.6267 130.347L71.6781 130.315L71.8354 130.216L71.9101 130.168L72.9609 129.505L76.5925 127.211C81.2198 124.304 82.5996 123.283 84.7494 121.177C85.6457 120.3 86.9969 118.801 87.064 118.611C87.0776 118.572 87.3178 118.202 87.5977 117.788C88.7353 116.104 89.4939 114.043 89.8701 111.611C90.0442 110.486 90.0431 107.735 89.868 106.491C89.5296 104.085 88.7608 101.356 87.932 99.6188C86.5727 96.7696 83.677 94.1807 79.5173 92.0957C78.3688 91.52 77.1827 90.9931 77.0503 91.0001C76.9875 91.0033 73.1166 93.3692 68.4482 96.2578C63.7799 99.1464 59.7282 101.654 59.4448 101.829C59.1613 102.005 58.6742 102.303 58.3623 102.491L55.6912 104.147Z" fill="url(#paint1_radial_965_343)"/>
<path d="M0.0202656 90.1314L0.0405396 110.209L0.304511 111.375C1.12992 115.02 2.56004 117.649 5.04623 120.09C6.21565 121.238 7.1099 121.93 8.37714 122.668C11.0587 124.231 13.9447 125.001 17.1059 125C20.4168 124.998 23.2809 124.185 26.2322 122.409C26.7303 122.11 28.6819 120.927 30.5689 119.781L34 117.697V93.8753V70.0537L33.999 48.2612C33.9983 34.3579 33.9724 26.1011 33.9278 25.4533C33.6464 21.3826 31.9171 17.6404 29.0092 14.8098C28.1168 13.9411 27.3542 13.3608 25.0827 11.822C23.9523 11.0562 21.8832 9.65328 20.4847 8.7045C19.0862 7.75565 16.782 6.19255 15.3642 5.23087C13.9465 4.26926 11.9244 2.89725 10.8707 2.18206C8.67558 0.692076 8.50378 0.588443 7.84021 0.35471C6.97711 0.0507474 6.06246 -0.060905 5.19288 0.0315458C2.6584 0.301011 0.629503 2.1025 0.102127 4.55169C0.02006 4.93274 0.00493994 10.0039 0.00389493 37.5277L0.00271286 70.0537H0L0.0202656 90.1314Z" fill="url(#paint2_linear_965_343)"/>
<defs>
<radialGradient id="paint0_radial_965_343" cx="0" cy="0" r="1" gradientUnits="userSpaceOnUse" gradientTransform="translate(92.733 102.029) rotate(-131.014) scale(74.2655 53.4653)">
<stop stop-color="white" stop-opacity="0.77"/>
<stop offset="1" stop-color="white"/>
</radialGradient>
<radialGradient id="paint1_radial_965_343" cx="0" cy="0" r="1" gradientUnits="userSpaceOnUse" gradientTransform="translate(12.5034 129.582) rotate(-23.1937) scale(81.0521 135.068)">
<stop stop-color="white"/>
<stop offset="1" stop-color="white" stop-opacity="0.27"/>
</radialGradient>
<linearGradient id="paint2_linear_965_343" x1="17.0001" y1="-4.39454e-08" x2="17.0001" y2="125" gradientUnits="userSpaceOnUse">
<stop stop-color="white"/>
<stop offset="1" stop-color="white" stop-opacity="0.22"/>
</linearGradient>
</defs>
</svg>
