<svg width="445" height="121" viewBox="0 0 445 121" fill="none" xmlns="http://www.w3.org/2000/svg">
<g clip-path="url(#clip0_964_332)">
<path d="M44.9567 32.1587C39.8471 32.1587 38.3698 34.4251 38.3698 39.4237V47.716H51.9991L50.633 61.1128H38.3751V101.769H22.0189V61.1128H11V47.716H22.0189V39.6514C22.0189 26.1381 27.4674 19.0002 42.6693 19.0002C45.8548 18.9928 49.0381 19.1818 52.2003 19.5668V32.1746L44.9567 32.1587Z" fill="white"/>
<path d="M53.1323 73.0374C53.1323 57.9356 60.2859 46.5615 75.276 46.5615C83.4514 46.5615 88.4446 50.7659 90.8326 55.9869V47.7159H106.5V101.769H90.8326V93.5933C88.5611 98.8197 83.4514 102.908 75.276 102.908C60.2859 102.908 53.1323 91.5494 53.1323 76.4316V73.0374ZM69.4832 76.6752C69.4832 84.7345 72.4325 90.072 80.0414 90.072C86.7449 90.072 90.1496 85.1899 90.1496 77.4695V72.0419C90.1496 64.3216 86.7449 59.4394 80.0414 59.4394C72.4325 59.4394 69.4832 64.7769 69.4832 72.8362V76.6752Z" fill="white"/>
<path d="M140.568 46.5774C146.922 46.5774 152.943 47.9435 156.236 50.2099L152.604 61.7957C149.197 60.1733 145.474 59.3197 141.701 59.2964C132.843 59.2964 128.993 64.4063 128.993 73.1539V76.331C128.993 85.0787 132.853 90.1885 141.701 90.1885C145.474 90.1647 149.197 89.3116 152.604 87.6892L156.236 99.2697C152.943 101.541 146.927 102.908 140.568 102.908C121.374 102.908 112.632 92.5713 112.632 75.9921V73.4928C112.632 56.9136 121.374 46.5774 140.568 46.5774Z" fill="white"/>
<path d="M158.391 76.8078V72.0421C158.391 56.7126 167.133 46.6252 184.967 46.6252C201.773 46.6252 209.154 56.8449 209.154 71.8356V80.4667H174.737C175.081 87.8482 178.374 91.1418 187.445 91.1418C193.582 91.1418 200.052 89.8922 204.823 87.8482L207.815 99.0475C203.499 101.324 194.641 103.024 186.809 103.024C166.111 103.019 158.391 92.6933 158.391 76.8078ZM174.742 69.7652H194.503V68.4043C194.503 62.5002 192.12 57.814 184.972 57.814C177.585 57.8193 174.742 62.479 174.742 69.744V69.7652Z" fill="white"/>
<path d="M269.766 76.4475C269.766 91.5494 262.501 102.923 247.527 102.923C239.351 102.923 233.675 98.8355 231.404 93.6092V101.785H215.963V20.5727L232.314 19.0901V55.2032C234.697 50.4376 239.923 46.5721 247.532 46.5721C262.522 46.5721 269.771 57.9302 269.771 73.048L269.766 76.4475ZM253.415 72.6985C253.415 65.0893 250.465 59.4129 242.629 59.4129C235.925 59.4129 232.293 64.1786 232.293 71.9042V77.5807C232.293 85.301 235.925 90.072 242.629 90.072C250.465 90.072 253.415 84.3956 253.415 76.7864V72.6985Z" fill="white"/>
<path d="M275.235 76.1033V73.3816C275.235 57.8191 284.094 46.5774 302.15 46.5774C320.206 46.5774 329.069 57.8191 329.069 73.3816V76.1033C329.069 91.6606 320.211 102.908 302.155 102.908C284.099 102.908 275.235 91.6606 275.235 76.1033ZM312.713 72.2431C312.713 65.0893 309.759 59.4129 302.123 59.4129C294.488 59.4129 291.56 65.0893 291.56 72.2431V77.2418C291.56 84.3956 294.514 90.072 302.123 90.072C309.732 90.072 312.713 84.3956 312.713 77.2418V72.2431Z" fill="white"/>
<path d="M334.508 76.1033V73.3816C334.508 57.8191 343.366 46.5774 361.422 46.5774C379.478 46.5774 388.337 57.8191 388.337 73.3816V76.1033C388.337 91.6606 379.478 102.908 361.422 102.908C343.366 102.908 334.508 91.6606 334.508 76.1033ZM371.986 72.2431C371.986 65.0893 369.031 59.4129 361.422 59.4129C353.813 59.4129 350.864 65.0893 350.864 72.2431V77.2418C350.864 84.3956 353.813 90.072 361.422 90.072C369.031 90.072 371.986 84.3956 371.986 77.2418V72.2431Z" fill="white"/>
<path d="M410.819 73.4928L426.942 47.7158H444.315L427.398 74.4035L444.998 101.769H427.625L410.819 75.2931V101.769H394.463V20.5727L410.819 19.0901V73.4928Z" fill="white"/>
</g>
<defs>
<clipPath id="clip0_964_332">
<rect width="434" height="84" fill="white" transform="translate(11 19)"/>
</clipPath>
</defs>
</svg>
