<svg width="80" height="26" viewBox="0 0 80 26" fill="none" xmlns="http://www.w3.org/2000/svg">
<g clip-path="url(#clip0_1_12)">
<path d="M19.6884 9.19353H10.3627V11.9309H16.9765C16.6498 15.7694 13.4213 17.4063 10.3739 17.4063C6.47493 17.4063 3.07275 14.3719 3.07275 10.1187C3.07275 5.97547 6.31592 2.7846 10.3825 2.7846C13.5198 2.7846 15.3685 4.76298 15.3685 4.76298L17.3061 2.77821C17.3061 2.77821 14.8192 0.039566 10.2834 0.039566C4.50823 0.039566 0.0400085 4.86154 0.0400085 10.0699C0.0400085 15.1735 4.24315 20.1503 10.4309 20.1503C15.8734 20.1503 19.8573 16.4623 19.8573 11.009C19.8573 9.8585 19.6884 9.19353 19.6884 9.19353Z" fill="white"/>
<path d="M27.3279 7.21138C23.5013 7.21138 20.759 10.1706 20.759 13.6219C20.759 17.1242 23.4189 20.1385 27.3729 20.1385C30.9522 20.1385 33.8846 17.4323 33.8846 13.6972C33.8846 9.41619 30.4736 7.21138 27.3279 7.21138ZM27.3659 9.75026C29.2477 9.75026 31.0309 11.2551 31.0309 13.68C31.0309 16.0535 29.2552 17.6013 27.3573 17.6013C25.2718 17.6013 23.6266 15.9491 23.6266 13.6612C23.6266 11.4224 25.2514 9.75026 27.3659 9.75026Z" fill="white"/>
<path d="M41.6148 7.21138C37.7883 7.21138 35.046 10.1706 35.046 13.6219C35.046 17.1242 37.7058 20.1385 41.6598 20.1385C45.2392 20.1385 48.1716 17.4323 48.1716 13.6972C48.1716 9.41619 44.7605 7.21138 41.6148 7.21138ZM41.6529 9.75026C43.5347 9.75026 45.3178 11.2551 45.3178 13.68C45.3178 16.0535 43.5422 17.6013 41.6442 17.6013C39.5587 17.6013 37.9136 15.9491 37.9136 13.6612C37.9136 11.4224 39.5383 9.75026 41.6529 9.75026Z" fill="white"/>
<path d="M55.6269 7.21822C52.1145 7.21822 49.3538 10.2612 49.3538 13.6766C49.3538 17.5671 52.5545 20.147 55.5664 20.147C57.4287 20.147 58.4189 19.4158 59.15 18.5765V19.851C59.15 22.081 57.7812 23.4164 55.7151 23.4164C53.7192 23.4164 52.718 21.9484 52.3701 21.1153L49.8588 22.1538C50.7497 24.0172 52.5431 25.9604 55.7359 25.9604C59.228 25.9604 61.8896 23.7846 61.8896 19.2214V7.60658H59.15V8.70151C58.3082 7.80366 57.1563 7.21822 55.6269 7.21822ZM55.8811 9.75197C57.6032 9.75197 59.3714 11.2064 59.3714 13.6903C59.3714 16.215 57.6069 17.6064 55.8431 17.6064C53.9706 17.6064 52.2283 16.1024 52.2283 13.7143C52.2283 11.2327 54.0378 9.75197 55.8811 9.75197Z" fill="white"/>
<path d="M74.0709 7.20282C70.7577 7.20282 67.9759 9.81028 67.9759 13.6578C67.9759 17.729 71.0767 20.1436 74.3891 20.1436C77.1538 20.1436 78.8506 18.6475 79.8632 17.307L77.6044 15.8203C77.0182 16.7201 76.0383 17.5996 74.403 17.5996C72.566 17.5996 71.7214 16.6046 71.1981 15.6407L79.96 12.0445L79.5051 10.9906C78.6584 8.92672 76.6837 7.20282 74.0709 7.20282ZM74.185 9.68867C75.3789 9.68867 76.2381 10.3165 76.6029 11.0693L70.7519 13.4884C70.4996 11.6155 72.2933 9.68867 74.185 9.68867Z" fill="white"/>
<path d="M63.799 19.7597H66.677V0.707779H63.799V19.7597Z" fill="white"/>
</g>
<defs>
<clipPath id="clip0_1_12">
<rect width="80" height="26" fill="white"/>
</clipPath>
</defs>
</svg>
