<svg width="33" height="27" viewBox="0 0 33 27" fill="none" xmlns="http://www.w3.org/2000/svg">
<g clip-path="url(#clip0_1_21)">
<path d="M29.5337 6.78838C29.5536 7.07559 29.5536 7.36279 29.5536 7.65265C29.5536 16.4846 22.7939 26.6704 10.4336 26.6704V26.6651C6.78229 26.6704 3.20685 25.6301 0.133057 23.6687C0.663984 23.7322 1.19757 23.764 1.73249 23.7653C4.75838 23.7679 7.69777 22.7581 10.0783 20.8985C7.20277 20.8443 4.6812 18.9794 3.80031 16.2569C4.80761 16.4501 5.84552 16.4104 6.83419 16.1418C3.69919 15.5118 1.44374 12.7721 1.44374 9.59029C1.44374 9.56117 1.44374 9.53338 1.44374 9.50559C2.37786 10.0231 3.42374 10.3103 4.49358 10.3421C1.54088 8.37926 0.630718 4.4722 2.41378 1.4175C5.82556 5.59323 10.8594 8.13176 16.2631 8.40044C15.7216 6.07897 16.4614 3.64632 18.2072 2.01441C20.9137 -0.516177 25.1705 -0.386471 27.7147 2.30426C29.2196 2.00912 30.6621 1.45985 31.9821 0.681617C31.4804 2.22882 30.4305 3.54309 29.028 4.37823C30.36 4.22206 31.6614 3.86735 32.8869 3.32603C31.9847 4.67073 30.8483 5.84206 29.5337 6.78838Z" fill="white"/>
</g>
<defs>
<clipPath id="clip0_1_21">
<rect width="33" height="27" fill="white"/>
</clipPath>
</defs>
</svg>
