<svg width="157" height="27" viewBox="0 0 157 27" fill="none" xmlns="http://www.w3.org/2000/svg">
<path d="M16.2475 6.76703C16.2475 6.76703 15.7724 5.78138 15.6106 5.45372C14.5311 3.2697 14.5544 3.15344 13.4633 3.00677C13.1579 2.96581 13 2.92618 13 2.7716V2.08058L13.0918 2.01321C15.0631 2.01057 19.4496 2.01056 19.4496 2.01056L19.6179 2.06737V2.75574C19.6179 2.91297 19.5078 2.99357 19.284 2.99357L18.8232 3.06095C17.6583 3.15344 17.8486 3.63964 18.6225 5.21324L25.9705 20.5594L26.2216 20.6294L32.7451 4.82612C32.9716 4.18928 32.9365 3.73742 32.6453 3.47185C32.3529 3.2129 32.1471 3.05963 31.3912 3.02792L30.7789 2.99621C30.7038 2.99621 30.6327 2.96847 30.5641 2.91694C30.4968 2.86806 30.4618 2.8033 30.4618 2.72536V2.06737L30.555 2C32.3929 2 37.925 2 37.925 2L38 2.06737V2.72536C38 2.90372 37.9003 2.99357 37.7036 2.99357C36.738 3.03717 36.0222 3.2512 35.5589 3.63304C35.0942 4.01752 34.7318 4.54733 34.4717 5.2357C34.4717 5.2357 28.4724 19.2527 26.4196 23.9114C25.634 25.4388 24.8613 25.2987 24.1818 23.8677C22.7463 20.8501 18.7041 11.6952 18.7041 11.6952L16.2475 6.76703Z" fill="white"/>
<path d="M27.9255 2.00586C27.9255 2.00586 23.741 1.99267 21.8779 2.00586L21.7851 2.07313V2.72745C21.7851 2.80792 21.8191 2.87123 21.8871 2.92004C21.9563 2.9715 22.0269 2.99789 22.1026 2.99789L22.4018 3.03085C23.1635 3.06252 23.5136 3.26437 23.6181 3.39101C23.7997 3.61527 23.8898 3.85798 23.4496 4.82758L15.6369 20.5615L15.4318 20.5074C15.4318 20.5074 9.83624 8.59386 8.21618 4.60861C8.04765 4.1957 7.97186 3.88966 7.97186 3.70102C7.97186 3.29603 8.33376 3.07705 9.05756 3.0467L9.90156 3.01108C10.1249 3.01108 10.2386 2.924 10.2386 2.74327V2.08898L10.1629 2.02168C10.1629 2.02168 3.46062 2.01377 2.07577 2.02168L2 2.08898V2.77627C2 2.90026 2.15547 2.97677 2.46772 3.01108C3.31822 3.05725 3.87739 3.19445 4.14652 3.42267C4.41434 3.65353 4.69785 4.23661 5.07411 5.14553C7.10828 10.0793 11.4301 18.8835 13.5348 23.8977C14.141 25.2671 14.9027 25.4794 15.8277 23.8556C17.4294 20.8557 21.7721 11.6953 21.7721 11.6953L25.1924 5.23655C25.5909 4.55453 25.975 3.94638 26.1697 3.66275C26.5264 3.14431 26.7262 3.0467 27.7008 3.00053C27.8994 3.00053 28 2.91081 28 2.73008V2.07577L27.9255 2.00586Z" fill="white"/>
<path d="M40.7639 22.62C40.7639 23.3784 41.088 23.8265 42.125 23.9299L42.8056 24.0003C42.9027 24.0003 43 24.0679 43 24.2058V24.9298L42.9675 25C42.9675 25 40.5046 24.9298 39.5 24.9298C38.5926 24.9298 36.0648 25 36.0648 25L36 24.9298V24.2058C36 24.0679 36.0973 24.0003 36.2269 24.0003L36.875 23.9299C37.9445 23.8265 38.2685 23.275 38.2685 22.62V11.1401C38.2685 10.3829 37.8784 10.1735 36.875 10.0727L36.2269 10.0011C36.0973 10.0011 36 9.96927 36 9.86319V9.06896L36.0325 9C36.0325 9 38.5926 9.06896 39.5972 9.06896C40.4722 9.06896 42.9675 9 42.9675 9L43 9.06896V9.82737C43 9.9308 42.9352 9.99971 42.8056 9.99971L42.125 10.07C41.1204 10.1721 40.7639 10.4493 40.7639 11.1401V22.62Z" fill="white"/>
<path d="M50.983 22.62C50.983 23.3784 51.4237 23.7576 52.4068 23.9299L52.7797 24.0003C52.8813 24.0335 52.983 24.0679 52.983 24.2058V24.9298L52.9491 25C52.9491 25 50.8135 24.9298 49.7965 24.9298C48.8475 24.9298 46.0678 25 46.0678 25L46 24.9298V24.2058C46 24.0679 46.1016 24.0003 46.2373 24.0003L46.9152 23.9299C47.9322 23.8265 48.3729 23.275 48.3729 22.62V11.1401C48.3729 10.3829 48 10.1735 46.9152 10.0727L46.2373 10.0011C46.1016 10.0011 46 9.96927 46 9.86319V9.06896L46.0338 9C46.0338 9 48.8135 9.06896 49.8644 9.06896C50.8149 9.06896 52.9491 9 52.9491 9L52.983 9.06896V9.82737C52.983 9.9308 52.9152 9.96528 52.7797 9.99971L52.4068 10.07C51.3559 10.2755 50.983 10.4493 50.983 11.1401V16.3457C52.1016 16.3457 52.7457 15.7609 54.2373 14.1393C55.5932 12.6211 56.6441 11.3482 56.6441 10.6919C56.6441 10.4147 56.3389 10.1058 55.661 10.0011C55.5254 9.96794 55.4576 9.93214 55.4576 9.82871V9.03448L55.4916 9.00132C55.4916 9.00132 58.2373 9.07027 59.2203 9.07027C60.1017 9.07027 61.5932 9.00132 61.5932 9.00132L61.6949 9.03448V9.82871C61.6949 9.93214 61.5932 10.0011 61.4237 10.0011C60.1017 10.1045 59.1865 10.1735 57.9661 11.5869L55.0508 14.9986C54.4746 15.6204 54.2711 15.9983 54.2711 16.2753C54.2711 16.4823 54.4068 16.6533 54.5762 16.8602L59.6949 23.1344C60.1017 23.6157 60.9152 23.8239 61.5932 23.9605L61.7627 23.9936C61.8644 24.0281 62 24.097 62 24.2005V24.9244L61.8983 24.9589C61.8983 24.9589 60.1017 24.9244 59.1525 24.9244C58.3051 24.9244 57.0848 24.9589 57.0848 24.9589L57.0508 24.9244V24.5108C57.0508 24.0612 57.017 23.6847 56.5424 23.1331L52.7797 18.3744C52.2711 17.6835 51.7288 17.5138 50.983 17.5138V22.62Z" fill="white"/>
<path d="M68.7639 22.62C68.7639 23.3784 69.088 23.8265 70.125 23.9299L70.8056 24.0003C70.9027 24.0003 71 24.0679 71 24.2058V24.9298L70.9676 25C70.9676 25 68.5046 24.9298 67.5001 24.9298C66.5926 24.9298 64.0648 25 64.0648 25L64 24.9298V24.2058C64 24.0679 64.0973 24.0003 64.2269 24.0003L64.875 23.9299C65.9445 23.8265 66.2685 23.275 66.2685 22.62V11.1401C66.2685 10.3829 65.8797 10.1735 64.875 10.0727L64.2269 10.0011C64.0973 10.0011 64 9.96927 64 9.86319V9.06896L64.0325 9C64.0325 9 66.5926 9.06896 67.5972 9.06896C68.4722 9.06896 70.9676 9 70.9676 9L71 9.06896V9.82737C71 9.9308 70.9352 9.99971 70.8056 9.99971L70.125 10.07C69.1204 10.1721 68.7639 10.4493 68.7639 11.1401V22.62Z" fill="white"/>
<path d="M76.3308 11.207C76.3308 10.1381 75.8846 10.1035 74.2718 10.0001C74.066 10.0001 74.0316 9.89796 74.0316 9.82767V9.03449L74.1003 9C74.615 9 76.6396 9.06898 77.6347 9.06898C78.5955 9.06898 79.9681 9 81.2378 9C86.1078 9 87 11.4127 87 13.2086C87 15.2791 86.0048 18.5194 81.1348 18.5194C80.2769 18.5194 79.5906 18.4491 78.9716 18.1746V22.7929C78.9716 23.5516 79.3834 23.7254 80.4828 23.8965L81.1704 23.9999C81.3076 24.0344 81.4106 24.0702 81.4106 24.2068V24.931L81.3776 25C81.3776 25 78.6324 24.931 77.5687 24.931C76.6079 24.931 74.0343 25 74.0343 25L74 24.931V24.2068C74 24.0689 74.0686 24.0344 74.2059 23.9999L74.9265 23.8965C75.9902 23.7585 76.3334 23.4481 76.3334 22.7929L76.3308 11.207ZM78.973 17.2089C79.6593 17.4861 80.5171 17.5193 81.2034 17.5193C83.2636 17.5193 84.2548 16.2752 84.2548 13.6224C84.2548 10.6566 82.9165 10.0014 81.0318 10.0014C79.3834 10.0014 78.9716 10.3118 78.9716 11.2084L78.973 17.2089Z" fill="white"/>
<path d="M92.6268 24.9298C91.5388 24.9298 89.0378 25 89.0378 25L89 24.9298V24.1713C89 24.1037 89.0378 24.0003 89.2177 24.0003L90.0532 23.9299C91.1788 23.8265 91.5052 23.137 91.5052 22.4489V11.0725C91.5052 10.2769 91.0687 10.1403 90.0532 10.0727L89.2177 10.0011C89.0001 9.96927 89 9.89898 89 9.86319V9.06896L89.0378 9C89.0378 9 91.8652 9.06896 92.9531 9.06896H98.2844C99.3724 9.06896 101.949 9 101.949 9L102.023 9.06896C102.058 10.5513 102.311 11.8985 102.567 13.2072L101.661 13.345C101.264 12.0682 100.575 10.2424 98.2537 10.2424H95.3524C94.6633 10.2424 94.3005 10.4837 94.3005 11.0684V16.0685H97.0192C98.0361 16.0685 98.2886 15.6548 98.435 14.9654L98.6512 14.2415C98.6512 14.138 98.7252 14.0677 98.8688 14.0677H99.4839C99.5579 14.0677 99.5579 14.1035 99.5579 14.1711C99.4839 14.9296 99.3403 15.8961 99.3403 16.7236C99.3403 17.5841 99.4854 18.3093 99.5579 19.1022L99.4839 19.1726H98.8688C98.6889 19.1726 98.6136 19.1022 98.6136 18.9988L98.4322 18.2417C98.2872 17.5509 97.9608 17.1718 97.015 17.1718H94.2978V22.4476C94.2978 23.1012 94.6939 23.7563 95.3496 23.7563H98.7949C100.644 23.7563 101.661 22.6531 102.095 20.8592L103 20.9626L102.274 24.9258L102.201 24.9947C102.201 24.9947 100.061 24.9258 98.9735 24.9258L92.6268 24.9298Z" fill="white"/>
<path d="M105.209 24.0039L106.01 23.9336C107.056 23.8301 107.404 23.5197 107.404 22.452V11.0719C107.404 10.1725 107.158 10.1725 106.01 10.0717L105.246 10.0001C105.107 10.0001 105 9.93113 105 9.82767V9.06898L105.033 9C105.033 9 108.1 9.06898 108.728 9.06898C109.387 9.06898 112.421 9 113.326 9C119.142 9 122 12.5866 122 17.1731C122 23.2094 117.68 25 113.815 25C111.029 25 109.811 24.931 108.731 24.931C107.685 24.931 105.037 25 105.037 25L105.002 24.931V24.2068C105 24.1074 105.07 24.0039 105.209 24.0039ZM112.977 24.0039C116.808 24.0039 118.97 22.5913 118.97 17.7606C118.97 14.1755 118.168 10.0001 112.316 10.0001C110.957 10.0001 110.087 10.207 110.087 11.0719V22.452C110.087 23.415 110.329 24.0039 112.977 24.0039Z" fill="white"/>
<path d="M129.764 22.62C129.764 23.3784 130.088 23.8265 131.125 23.9299L131.806 24.0003C131.903 24.0003 132 24.0679 132 24.2058V24.9298L131.967 25C131.967 25 129.504 24.9298 128.501 24.9298C127.593 24.9298 125.066 25 125.066 25L125 24.9298V24.2058C125 24.0679 125.097 24.0003 125.227 24.0003L125.876 23.9299C126.945 23.8265 127.269 23.275 127.269 22.62V11.1401C127.269 10.3829 126.879 10.1735 125.876 10.0727L125.227 10.0011C125.097 10.0011 125 9.96927 125 9.86319V9.06896L125.033 9C125.033 9 127.593 9.06896 128.595 9.06896C129.47 9.06896 131.966 9 131.966 9L131.997 9.06896V9.82737C131.997 9.9308 131.932 9.99971 131.804 9.99971L131.123 10.07C130.118 10.1721 129.761 10.4493 129.761 11.1401L129.764 22.62Z" fill="white"/>
<path d="M140.354 23.9185L141.324 23.9896C141.458 23.9896 141.592 24.0941 141.592 24.267V24.929L141.524 25C141.524 25 137.881 24.929 137.078 24.929C136.208 24.929 134.069 25 134.069 25L134 24.929V24.267C134 24.0941 134.1 23.9896 134.269 23.9896C135.741 23.8851 136.575 23.6049 137.51 21.3751L144.93 3.25568C145.297 2.34977 145.566 2 146.069 2C146.535 2 146.703 2.34977 146.97 3.04661L153.823 21.9312C154.292 23.2914 154.961 23.8127 156.299 23.952L156.666 23.9856C156.833 23.9856 157 24.0901 157 24.2656V24.9263L156.901 24.996C156.901 24.996 154.326 24.9263 153.022 24.9263C151.852 24.9263 148.575 24.996 148.575 24.996L148.543 24.9263V24.2656C148.543 24.0901 148.61 23.9856 148.78 23.9856L149.715 23.9159C150.985 23.8127 151.454 23.3919 151.12 22.4177L149.08 16.5279H142.126C141.324 16.5279 141.123 16.6673 140.957 17.1189L139.017 22.1724C138.684 23.0462 139.118 23.814 140.354 23.9185ZM148.545 15.0659L145.302 5.76433H145.235L141.892 14.6143C141.759 14.9641 141.991 15.0672 142.727 15.0672H148.545V15.0659Z" fill="white"/>
</svg>
