<svg width="157" height="27" viewBox="0 0 157 27" fill="none" xmlns="http://www.w3.org/2000/svg">
<path d="M17.3561 7.01104C17.3561 7.01104 16.8951 6.06317 16.7381 5.74807C15.6906 3.64778 15.7132 3.53597 14.6544 3.39493C14.358 3.35554 14.2048 3.31743 14.2048 3.16877V2.50424L14.2939 2.43945C16.2068 2.43691 20.4634 2.43691 20.4634 2.43691L20.6267 2.49154V3.15352C20.6267 3.30472 20.5199 3.38223 20.3027 3.38223L19.8555 3.44703C18.7251 3.53597 18.9098 4.00354 19.6608 5.51681L26.7912 20.2747L27.0348 20.342L33.3651 5.14453C33.5849 4.53211 33.5509 4.09757 33.2683 3.84218C32.9845 3.59315 32.7848 3.44576 32.0513 3.41527L31.4572 3.38477C31.3843 3.38477 31.3153 3.35809 31.2487 3.30854C31.1834 3.26153 31.1495 3.19926 31.1495 3.1243V2.49154L31.2399 2.42675C33.0234 2.42675 38.3916 2.42675 38.3916 2.42675L38.4644 2.49154V3.1243C38.4644 3.29583 38.3677 3.38223 38.1768 3.38223C37.2398 3.42416 36.5452 3.62999 36.0956 3.99719C35.6447 4.36693 35.293 4.87643 35.0406 5.53841C35.0406 5.53841 29.219 19.0181 27.227 23.4982C26.4646 24.967 25.7148 24.8323 25.0554 23.4562C23.6625 20.5542 19.74 11.7503 19.74 11.7503L17.3561 7.01104Z" fill="white"/>
<path d="M28.7806 2.4293C28.7806 2.4293 24.7577 2.41659 22.9666 2.4293L22.8774 2.49409V3.1243C22.8774 3.20181 22.9101 3.26279 22.9754 3.3098C23.042 3.35936 23.1098 3.38478 23.1826 3.38478L23.4703 3.41653C24.2025 3.44703 24.5391 3.64144 24.6396 3.76342C24.8142 3.97942 24.9008 4.21319 24.4776 5.14707L16.9667 20.3014L16.7695 20.2493C16.7695 20.2493 11.3901 8.7746 9.83262 4.93616C9.6706 4.53846 9.59774 4.2437 9.59774 4.06201C9.59774 3.67194 9.94566 3.46102 10.6415 3.43179L11.4529 3.39748C11.6676 3.39748 11.7769 3.31361 11.7769 3.13954V2.50935L11.7041 2.44453C11.7041 2.44453 5.26077 2.43691 3.92941 2.44453L3.85657 2.50935V3.17132C3.85657 3.29075 4.00603 3.36444 4.30622 3.39748C5.12387 3.44195 5.66144 3.5741 5.92017 3.79391C6.17765 4.01627 6.4502 4.57787 6.81193 5.4533C8.76752 10.2053 12.9224 18.6852 14.9458 23.5147C15.5286 24.8336 16.2608 25.0381 17.1501 23.4741C18.6899 20.5847 22.8649 11.7618 22.8649 11.7618L26.1531 5.54097C26.5362 4.88408 26.9054 4.29833 27.0926 4.02515C27.4355 3.52581 27.6276 3.43179 28.5646 3.38732C28.7555 3.38732 28.8522 3.30091 28.8522 3.12684V2.49663L28.7806 2.4293Z" fill="white"/>
<path d="M41.0128 22.1018C41.0128 22.8286 41.3394 23.258 42.3844 23.3571L43.0702 23.4245C43.1681 23.4245 43.2661 23.4893 43.2661 23.6214V24.3152L43.2334 24.3825C43.2334 24.3825 40.7516 24.3152 39.7392 24.3152C38.8249 24.3152 36.2777 24.3825 36.2777 24.3825L36.2124 24.3152V23.6214C36.2124 23.4893 36.3104 23.4245 36.441 23.4245L37.0941 23.3571C38.1718 23.258 38.4983 22.7295 38.4983 22.1018V11.1011C38.4983 10.3755 38.1052 10.1748 37.0941 10.0782L36.441 10.0096C36.3104 10.0096 36.2124 9.97913 36.2124 9.87748V9.1164L36.2451 9.05032C36.2451 9.05032 38.8249 9.1164 39.8372 9.1164C40.7189 9.1164 43.2334 9.05032 43.2334 9.05032L43.2661 9.1164V9.84316C43.2661 9.94227 43.2008 10.0083 43.0702 10.0083L42.3844 10.0757C41.3721 10.1735 41.0128 10.4391 41.0128 11.1011V22.1018Z" fill="white"/>
<path d="M50.6501 22.1018C50.6501 22.8286 51.0746 23.192 52.0217 23.3571L52.3809 23.4245C52.4788 23.4563 52.5768 23.4893 52.5768 23.6214V24.3152L52.5441 24.3825C52.5441 24.3825 50.4868 24.3152 49.5071 24.3152C48.5928 24.3152 45.915 24.3825 45.915 24.3825L45.8497 24.3152V23.6214C45.8497 23.4893 45.9476 23.4245 46.0783 23.4245L46.7314 23.3571C47.7111 23.258 48.1356 22.7295 48.1356 22.1018V11.1011C48.1356 10.3755 47.7764 10.1748 46.7314 10.0782L46.0783 10.0096C45.9476 10.0096 45.8497 9.97913 45.8497 9.87748V9.1164L45.8823 9.05032C45.8823 9.05032 48.5601 9.1164 49.5725 9.1164C50.4881 9.1164 52.5441 9.05032 52.5441 9.05032L52.5768 9.1164V9.84316C52.5768 9.94227 52.5115 9.97531 52.3809 10.0083L52.0217 10.0757C51.0093 10.2726 50.6501 10.4391 50.6501 11.1011V16.0894C51.7277 16.0894 52.3482 15.529 53.7851 13.9751C55.0913 12.5203 56.1037 11.3005 56.1037 10.6716C56.1037 10.406 55.8097 10.11 55.1566 10.0096C55.026 9.97786 54.9607 9.94355 54.9607 9.84444V9.08336L54.9934 9.05158C54.9934 9.05158 57.6385 9.11766 58.5855 9.11766C59.4346 9.11766 60.8714 9.05158 60.8714 9.05158L60.9694 9.08336V9.84444C60.9694 9.94355 60.8714 10.0096 60.7081 10.0096C59.4346 10.1087 58.5529 10.1748 57.3772 11.5292L54.5688 14.7985C54.0137 15.3944 53.8177 15.7565 53.8177 16.022C53.8177 16.2203 53.9484 16.3842 54.1116 16.5824L59.0427 22.5948C59.4346 23.056 60.2183 23.2555 60.8714 23.3864L61.0347 23.4181C61.1327 23.4512 61.2633 23.5172 61.2633 23.6164V24.3101L61.1653 24.3431C61.1653 24.3431 59.4346 24.3101 58.5202 24.3101C57.7038 24.3101 56.5282 24.3431 56.5282 24.3431L56.4955 24.3101V23.9137C56.4955 23.4829 56.4629 23.1221 56.0057 22.5935L52.3809 18.0334C51.891 17.3714 51.3685 17.2088 50.6501 17.2088V22.1018Z" fill="white"/>
<path d="M68.2554 22.1018C68.2554 22.8286 68.582 23.258 69.627 23.3571L70.3128 23.4245C70.4107 23.4245 70.5087 23.4893 70.5087 23.6214V24.3152L70.4761 24.3825C70.4761 24.3825 67.9942 24.3152 66.9819 24.3152C66.0675 24.3152 63.5203 24.3825 63.5203 24.3825L63.455 24.3152V23.6214C63.455 23.4893 63.553 23.4245 63.6836 23.4245L64.3367 23.3571C65.4144 23.258 65.7409 22.7295 65.7409 22.1018V11.1011C65.7409 10.3755 65.3491 10.1748 64.3367 10.0782L63.6836 10.0096C63.553 10.0096 63.455 9.97913 63.455 9.87748V9.1164L63.4877 9.05032C63.4877 9.05032 66.0675 9.1164 67.0798 9.1164C67.9615 9.1164 70.4761 9.05032 70.4761 9.05032L70.5087 9.1164V9.84316C70.5087 9.94227 70.4434 10.0083 70.3128 10.0083L69.627 10.0757C68.6147 10.1735 68.2554 10.4391 68.2554 11.1011V22.1018Z" fill="white"/>
<path d="M75.3117 11.1658C75.3117 10.1418 74.8871 10.1087 73.3523 10.0096C73.1564 10.0096 73.1237 9.91178 73.1237 9.84444V9.08462L73.189 9.05158C73.6789 9.05158 75.6056 9.11766 76.5526 9.11766C77.467 9.11766 78.7732 9.05158 79.9815 9.05158C84.6161 9.05158 85.4652 11.3628 85.4652 13.0832C85.4652 15.0666 84.5181 18.1706 79.8835 18.1706C79.0671 18.1706 78.414 18.1033 77.8249 17.8403V22.2644C77.8249 22.9912 78.2168 23.1577 79.263 23.3216L79.9174 23.4207C80.048 23.4537 80.146 23.488 80.146 23.6189V24.3126L80.1146 24.3787C80.1146 24.3787 77.5021 24.3126 76.4898 24.3126C75.5754 24.3126 73.1262 24.3787 73.1262 24.3787L73.0936 24.3126V23.6189C73.0936 23.4868 73.1589 23.4537 73.2895 23.4207L73.9753 23.3216C74.9876 23.1894 75.3142 22.8921 75.3142 22.2644L75.3117 11.1658ZM77.8262 16.9153C78.4793 17.1808 79.2957 17.2126 79.9488 17.2126C81.9094 17.2126 82.8527 16.0208 82.8527 13.4796C82.8527 10.6385 81.5791 10.0109 79.7855 10.0109C78.2168 10.0109 77.8249 10.3082 77.8249 11.1671L77.8262 16.9153Z" fill="white"/>
<path d="M91.0896 24.3152C90.1099 24.3152 87.8579 24.3825 87.8579 24.3825L87.8239 24.3152V23.5884C87.8239 23.5236 87.8579 23.4245 88.0199 23.4245L88.7722 23.3571C89.7858 23.258 90.0797 22.5973 90.0797 21.9379V11.0363C90.0797 10.2739 89.6866 10.143 88.7722 10.0782L88.0199 10.0096C87.824 9.97913 87.8239 9.91178 87.8239 9.87748V9.1164L87.8579 9.05032C87.8579 9.05032 90.4038 9.1164 91.3834 9.1164H96.1839C97.1636 9.1164 99.4834 9.05032 99.4834 9.05032L99.55 9.1164C99.5814 10.5369 99.8099 11.8278 100.04 13.0819L99.2247 13.214C98.8667 11.9905 98.2462 10.2409 96.1563 10.2409H93.5438C92.9233 10.2409 92.5967 10.4721 92.5967 11.0324V15.8238H95.0447C95.9603 15.8238 96.1877 15.4274 96.3195 14.7667L96.5142 14.073C96.5142 13.9739 96.5808 13.9065 96.7101 13.9065H97.264C97.3306 13.9065 97.3306 13.9408 97.3306 14.0056C97.264 14.7324 97.1347 15.6586 97.1347 16.4515C97.1347 17.2761 97.2653 17.9711 97.3306 18.7309L97.264 18.7983H96.7101C96.5481 18.7983 96.4803 18.7309 96.4803 18.6318L96.317 17.9063C96.1864 17.2443 95.8925 16.881 95.0409 16.881H92.5942V21.9366C92.5942 22.563 92.9509 23.1907 93.5413 23.1907H96.6436C98.309 23.1907 99.2247 22.1336 99.6153 20.4145L100.43 20.5136L99.776 24.3114L99.7107 24.3774C99.7107 24.3774 97.784 24.3114 96.8044 24.3114L91.0896 24.3152Z" fill="white"/>
<path d="M103.371 23.4245L104.122 23.3571C105.103 23.258 105.429 22.9607 105.429 21.9379V11.0363C105.429 10.1748 105.198 10.1748 104.122 10.0782L103.406 10.0096C103.275 10.0096 103.175 9.94355 103.175 9.84444V9.11766L103.206 9.05158C103.206 9.05158 106.081 9.11766 106.67 9.11766C107.288 9.11766 110.132 9.05158 110.981 9.05158C116.434 9.05158 119.113 12.4873 119.113 16.881C119.113 22.6634 115.063 24.3787 111.439 24.3787C108.827 24.3787 107.685 24.3126 106.673 24.3126C105.692 24.3126 103.21 24.3787 103.21 24.3787L103.177 24.3126V23.6189C103.175 23.5236 103.241 23.4245 103.371 23.4245ZM110.654 23.4245C114.245 23.4245 116.272 22.0713 116.272 17.4438C116.272 14.0094 115.52 10.0096 110.034 10.0096C108.76 10.0096 107.944 10.2078 107.944 11.0363V21.9379C107.944 22.8604 108.171 23.4245 110.654 23.4245Z" fill="white"/>
<path d="M126.823 22.1018C126.823 22.8286 127.149 23.258 128.194 23.3571L128.88 23.4245C128.978 23.4245 129.076 23.4893 129.076 23.6214V24.3152L129.043 24.3825C129.043 24.3825 126.561 24.3152 125.55 24.3152C124.635 24.3152 122.089 24.3825 122.089 24.3825L122.022 24.3152V23.6214C122.022 23.4893 122.12 23.4245 122.251 23.4245L122.905 23.3571C123.982 23.258 124.309 22.7295 124.309 22.1018V11.1011C124.309 10.3755 123.916 10.1748 122.905 10.0782L122.251 10.0096C122.12 10.0096 122.022 9.97913 122.022 9.87748V9.1164L122.055 9.05032C122.055 9.05032 124.635 9.1164 125.645 9.1164C126.526 9.1164 129.042 9.05032 129.042 9.05032L129.073 9.1164V9.84316C129.073 9.94227 129.007 10.0083 128.878 10.0083L128.192 10.0757C127.179 10.1735 126.82 10.4391 126.82 11.1011L126.823 22.1018Z" fill="white"/>
<path d="M136.883 23.3571L137.83 23.4245C137.961 23.4245 138.092 23.5236 138.092 23.6875V24.3152L138.026 24.3825C138.026 24.3825 134.467 24.3152 133.683 24.3152C132.833 24.3152 130.743 24.3825 130.743 24.3825L130.676 24.3152V23.6875C130.676 23.5236 130.774 23.4245 130.939 23.4245C132.377 23.3254 133.191 23.0598 134.105 20.9456L141.353 3.76595C141.711 2.90703 141.974 2.5754 142.465 2.5754C142.921 2.5754 143.085 2.90703 143.345 3.56773L150.04 21.4729C150.498 22.7625 151.151 23.2568 152.458 23.3889L152.817 23.4207C152.98 23.4207 153.143 23.5198 153.143 23.6862V24.3126L153.046 24.3787C153.046 24.3787 150.531 24.3126 149.257 24.3126C148.114 24.3126 144.913 24.3787 144.913 24.3787L144.882 24.3126V23.6862C144.882 23.5198 144.947 23.4207 145.113 23.4207L146.027 23.3546C147.267 23.2568 147.726 22.8578 147.399 21.9341L145.407 16.3498H138.614C137.83 16.3498 137.634 16.482 137.472 16.9102L135.577 21.7016C135.251 22.53 135.675 23.258 136.883 23.3571ZM144.884 14.9636L141.716 6.14449H141.651L138.385 14.5355C138.255 14.8671 138.482 14.9649 139.201 14.9649H144.884V14.9636Z" fill="white"/>
</svg>
