<svg width="1000" height="253" viewBox="0 0 1000 253" fill="none" xmlns="http://www.w3.org/2000/svg">
<path d="M278.082 71.6162C273.288 72.3013 252.74 76.4108 245.89 77.7806C238.356 79.8354 168.493 134.63 163.699 147.644C163.014 151.753 163.699 199.699 163.699 199.699L203.425 202.438L202.055 215.452C196.575 214.767 159.589 215.452 136.301 215.452C124.657 215.452 89.041 216.822 76.7122 216.137L78.0821 203.808C85.6164 204.493 97.2601 203.123 104.109 201.069C110.959 199.014 116.438 196.274 116.438 189.425V148.329C113.699 140.794 55.4795 67.5069 40.4109 55.863C36.3013 54.493 6.84932 51.0683 0 49.6986L1.36986 37.3699H134.932L132.877 49.0138C126.712 50.3837 98.6301 51.0685 91.0958 53.1234C110.274 81.2057 140.411 118.192 150 131.891C155.479 124.356 206.849 88.055 208.219 77.096C200.685 75.7261 176.712 72.3015 172.603 72.3015L170.548 59.9728H285.616L278.082 71.6162Z" fill="white"/>
<path d="M563.014 178.466C541.781 177.096 504.794 177.781 483.561 178.466L484.931 167.507C488.356 167.507 505.479 164.767 509.589 164.082V125.726C499.315 125.726 440.411 127.096 431.507 129.151V163.397C431.507 163.397 456.849 166.137 462.329 166.822L460.959 178.466C438.356 177.096 392.466 177.096 370.548 178.466L371.918 166.137C378.767 166.137 397.26 164.082 401.37 163.397C402.055 155.178 402.055 141.48 402.055 127.781V110.658C402.055 104.493 402.055 88.055 401.37 81.8904C396.575 81.8904 375.342 79.8357 369.863 79.8357L371.233 68.8767C390.411 70.2467 448.63 70.2467 464.383 68.8767L463.014 79.1507C458.219 79.1507 437.671 82.5754 431.507 82.5754V112.712H509.589V68.1917C504.109 67.5067 489.726 64.7671 483.561 64.0821L484.931 53.8081C497.945 54.4931 550 54.4931 563.698 53.8081L563.013 64.7671C558.904 64.7671 543.835 67.5067 538.356 68.1917V165.452C538.356 165.452 560.274 168.192 565.068 168.877L563.014 178.466Z" fill="white"/>
<path d="M973.288 146.274H952.055V36H1000L995.891 52.4384L973.288 146.274ZM956.849 190.11L942.466 190.795L945.205 166.137L959.589 166.822L973.288 166.137L970.548 190.11H956.849Z" fill="white"/>
<path d="M838.355 46.959C781.506 48.3289 745.89 70.2473 745.205 108.604V109.973C746.575 148.329 781.506 170.931 838.355 172.301H842.465C898.629 170.931 934.247 148.328 935.617 109.287C934.247 72.3009 899.314 48.3289 842.465 46.959H838.355ZM832.191 64.082H847.26C866.438 65.452 901.37 76.4103 902.055 109.287C902.055 142.164 866.438 154.493 847.26 155.178H832.191C813.013 153.808 778.081 142.164 777.396 109.287C778.081 76.4105 813.013 65.452 832.191 64.082Z" fill="white"/>
<path d="M645.891 66.1367C591.781 67.5067 561.645 88.7404 561.645 123.672V125.041C561.645 157.918 594.521 181.206 645.891 182.576H651.369C702.739 181.206 735.616 159.288 736.301 125.041V123.672C736.301 88.7403 702.739 67.5064 651.369 66.1367H645.891ZM643.15 81.8906H654.109C671.918 82.5756 706.164 92.1644 706.164 122.986V125.727C706.164 155.863 671.918 166.137 654.109 166.822H643.15C625.342 166.137 591.096 156.548 591.096 125.727V124.355V122.986C591.096 92.8494 625.342 82.5756 643.15 81.8906Z" fill="white"/>
<path d="M258.904 91.4785L258.219 101.068L280.137 106.547C280.137 106.547 247.945 170.932 241.096 179.836C235.616 181.206 221.233 184.63 215.754 185.314L214.383 196.959C218.492 196.274 275.343 196.959 280.822 196.959L282.191 186L262.328 181.205C262.328 181.205 271.232 162.711 272.602 160.656C278.766 159.286 315.754 158.602 315.754 158.602L328.768 194.219C328.768 194.219 313.014 196.959 306.85 196.959L305.479 208.604H386.986L388.355 198.328C383.561 199.013 368.493 194.904 363.014 194.219C356.849 184.63 334.932 129.15 324.658 104.492L343.15 101.754L345.205 92.1641H317.123C306.849 92.1641 263.014 92.1635 258.904 91.4785ZM296.576 107.232L312.328 147.645H278.082C280.137 142.85 296.576 107.232 296.576 107.232Z" fill="white"/>
</svg>
