<svg width="72" height="31" viewBox="0 0 72 31" fill="none" xmlns="http://www.w3.org/2000/svg">
<g clip-path="url(#clip0_1_45)">
<path d="M26.8714 24.9292H24.1457V23.3275C23.1171 24.5417 22.2171 25.1358 21.2786 25.1358C20.43 25.1358 19.8643 24.7483 19.5557 24.0121C19.4014 23.56 19.2729 22.8754 19.2729 21.855V10.2042H21.9986V22.165C22.0629 22.5525 22.23 22.7075 22.5771 22.7075C23.0914 22.7075 23.58 22.2296 24.1586 21.4158V10.2042H26.8843V24.9292M17.2286 15.0092C17.2286 13.4333 16.9329 12.2579 16.38 11.5217C15.66 10.4883 14.5157 10.1008 13.3586 10.1008C12.0471 10.1008 11.0443 10.4883 10.3371 11.5217C9.77143 12.2579 9.47571 13.4592 9.47571 15.0092V20.2662C9.47571 21.8162 9.73286 22.9013 10.2986 23.6246C11.0186 24.6579 12.2014 25.1746 13.3457 25.1746C14.5029 25.1746 15.6857 24.6579 16.4314 23.6246C16.9457 22.9013 17.2029 21.8162 17.2029 20.2662V14.9833L17.2286 15.0092ZM14.5286 20.5633C14.6571 22.0229 14.2071 22.7592 13.3714 22.7592C12.5229 22.7592 12.0857 22.0229 12.2143 20.5633V14.725C12.0857 13.2654 12.5229 12.5808 13.3714 12.5808C14.2071 12.5808 14.6571 13.2654 14.5286 14.725V20.5633ZM6.46714 16.9208V24.9292H3.6V16.9208C3.6 16.9208 0.604286 7.0525 0 5.21833H3.02143L5.04 12.9167L7.04571 5.23125H10.0543L6.45429 16.9079" fill="white"/>
<path d="M54.9514 12.5292C54.5272 12.5292 54.0514 12.7875 53.6014 13.2008V22.0617C54.0257 22.5008 54.5014 22.7075 54.9386 22.7075C55.71 22.7075 56.0314 22.165 56.0314 20.7054V14.4279C56.0314 12.9683 55.6843 12.5421 54.9257 12.5421M65.6743 14.2988C65.6743 12.9425 65.3272 12.5421 64.4657 12.5421C63.6043 12.5421 63.2314 12.9296 63.2314 14.2858V15.9004H65.6743V14.3117" fill="white"/>
<path d="M71.5757 6.82C71.5757 6.82 71.1514 3.84916 69.8657 2.51875C68.2329 0.774998 66.3943 0.774998 65.5714 0.684581C59.5671 0.258331 50.5543 0.258331 50.5543 0.258331H50.5286C50.5286 0.258331 41.5286 0.258331 35.5243 0.684581C34.6886 0.787915 32.85 0.787915 31.2171 2.51875C29.9314 3.83625 29.52 6.82 29.52 6.82C29.52 6.82 29.0829 10.3333 29.0829 13.8467V17.1404C29.0829 20.6537 29.52 24.1542 29.52 24.1542C29.52 24.1542 29.9314 27.1508 31.2171 28.4683C32.85 30.1992 34.9971 30.1475 35.9486 30.3154C39.3814 30.6512 50.5414 30.7546 50.5414 30.7546C50.5414 30.7546 59.58 30.7546 65.5843 30.3154C66.42 30.2121 68.2457 30.2121 69.8786 28.4812C71.1643 27.1637 71.5886 24.1671 71.5886 24.1671C71.5886 24.1671 72 20.6667 72 17.1404V13.8467C72 10.3333 71.5757 6.82 71.5757 6.82ZM38.5071 24.9292H35.64V8.1375H32.6186V5.39916H41.67V8.1375H38.52V24.9292H38.5071ZM48.8571 24.9292H46.1314V23.3275C45.1029 24.5417 44.2029 25.1358 43.2643 25.1358C42.4157 25.1358 41.85 24.7483 41.5414 24.0121C41.3871 23.56 41.2586 22.8754 41.2586 21.855V10.3333H43.9843V22.1779C44.0486 22.5654 44.2157 22.7204 44.5629 22.7204C45.0771 22.7204 45.5657 22.2425 46.1443 21.4287V10.3333H48.8571V24.9292ZM58.7571 20.5633C58.7571 21.9067 58.6671 22.8625 58.5 23.4825C58.14 24.5675 57.3814 25.1229 56.3529 25.1229C55.4271 25.1229 54.4757 24.5546 53.6014 23.4696V24.9421H51.0043V5.39916H53.5757V11.7542C54.4243 10.7208 55.3757 10.1137 56.34 10.1137C57.3686 10.1137 58.0629 10.7208 58.3971 11.7929C58.59 12.4 58.7571 13.3429 58.7571 14.725V20.5633ZM64.4914 22.7204C65.1343 22.7204 65.52 22.3587 65.6486 21.6483C65.6743 21.5192 65.6743 20.8733 65.6743 19.8142H68.4V20.2275C68.4 21.08 68.3357 21.6871 68.31 21.9454C68.22 22.5396 68.0143 23.0692 67.7057 23.5342C66.9857 24.5933 65.9057 25.11 64.5557 25.11C63.2057 25.11 62.1771 24.6192 61.4186 23.6117C60.8657 22.8754 60.5186 21.8033 60.5186 20.2533V15.1383C60.5186 13.5883 60.84 12.3742 61.3929 11.625C62.1386 10.6304 63.1929 10.1008 64.5043 10.1008C65.8157 10.1008 66.8443 10.6175 67.59 11.625C68.1043 12.3742 68.4257 13.5108 68.4257 15.0737V18.0833H63.2571V20.6925C63.2571 22.0487 63.6429 22.7204 64.5171 22.7204H64.4914Z" fill="white"/>
</g>
<defs>
<clipPath id="clip0_1_45">
<rect width="72" height="31" fill="white"/>
</clipPath>
</defs>
</svg>
